name analog
datacolumns 19
datarows 51
range 0.492 0.517
endheader
time	ground_force_vx	ground_force_vy	ground_force_vz	ground_force_px	ground_force_py	ground_force_pz	l_ground_force_vx	l_ground_force_vy	l_ground_force_vz	l_ground_force_px	l_ground_force_py	l_ground_force_pz	ground_torque_x	ground_torque_y	ground_torque_z	l_ground_torque_x	l_ground_torque_y	l_ground_torque_z
0.492	-0.0	-0.0	-0.0	-1.7561819553375244	61.23921203613281	-446.2559814453125	-18.293930053710938	-65.37100219726562	-438.3214721679688	-0.0	-0.0	-0.0	-0.0	-0.0	-0.0	73605.1640625	7248.13232421875	-14060.7060546875
0.4925	-0.0	-0.0	-0.0	-1.9626312255859373	61.589111328125	-445.140380859375	-18.895397186279297	-65.24205017089844	-439.9049987792969	-0.0	-0.0	-0.0	-0.0	-0.0	-0.0	73781.4140625	7291.75537109375	-14150.091796875
0.493	-0.0	-0.0	-0.0	-1.804838180541992	61.10919570922852	-445.2513732910156	-19.291221618652344	-65.35133361816406	-439.7166442871094	-0.0	-0.0	-0.0	-0.0	-0.0	-0.0	73798.0078125	7224.798828125	-14154.9150390625
0.4935	-0.0	-0.0	-0.0	-2.1480467319488525	60.69081497192383	-445.1417846679688	-19.352680206298828	-65.65692138671875	-440.4412536621094	-0.0	-0.0	-0.0	-0.0	-0.0	-0.0	73988.0	7105.35595703125	-14177.8916015625
0.494	-0.0	-0.0	-0.0	-2.010774850845337	60.34835052490234	-446.2288513183594	-19.345897674560547	-65.93560028076172	-439.9310302734375	-0.0	-0.0	-0.0	-0.0	-0.0	-0.0	74003.046875	7186.10693359375	-14253.251953125
0.4945	-0.0	-0.0	-0.0	-2.1772375106811523	60.27864074707031	-444.8158264160156	-19.77539825439453	-66.06462097167969	-442.0539245605469	-0.0	-0.0	-0.0	-0.0	-0.0	-0.0	74072.421875	7082.62841796875	-14093.9755859375
0.495	-0.0	-0.0	-0.0	-2.285905361175537	59.91446685791016	-446.2574157714844	-19.516372680664062	-66.10518646240234	-442.1863098144531	-0.0	-0.0	-0.0	-0.0	-0.0	-0.0	74115.734375	7123.81982421875	-14116.2578125
0.4955	-0.0	-0.0	-0.0	-2.137376308441162	59.8956298828125	-443.4321594238281	-19.442279815673828	-66.69015502929688	-443.0446166992188	-0.0	-0.0	-0.0	-0.0	-0.0	-0.0	74519.984375	6989.94873046875	-14197.95703125
0.496	-0.0	-0.0	-0.0	-2.4646923542022705	60.341285705566406	-444.2100830078125	-19.69379425048828	-66.95527648925781	-443.7129211425781	-0.0	-0.0	-0.0	-0.0	-0.0	-0.0	74590.2578125	7087.91943359375	-14121.4326171875
0.4965	-0.0	-0.0	-0.0	-2.895479917526245	60.52725982666016	-444.8760070800781	-20.18549919128418	-67.35662078857422	-444.6296691894531	-0.0	-0.0	-0.0	-0.0	-0.0	-0.0	74684.765625	6987.978515625	-14256.640625
0.497	-0.0	-0.0	-0.0	-2.862584352493286	60.64931869506836	-443.5261535644531	-20.152774810791016	-68.11137390136719	-445.137939453125	-0.0	-0.0	-0.0	-0.0	-0.0	-0.0	74853.2421875	6862.068359375	-14232.970703125
0.4975	-0.0	-0.0	-0.0	-3.276098251342773	60.51954650878906	-443.75482177734375	-20.669612884521484	-67.88691711425781	-445.4866638183594	-0.0	-0.0	-0.0	-0.0	-0.0	-0.0	74822.640625	6976.59423828125	-14302.96484375
0.498	-0.0	-0.0	-0.0	-3.3739013671875	60.357704162597656	-444.9748840332031	-20.774150848388672	-67.95172119140625	-445.83544921875	-0.0	-0.0	-0.0	-0.0	-0.0	-0.0	74833.1328125	6944.4921875	-14241.1103515625
0.4985	-0.0	-0.0	-0.0	-3.47100043296814	60.721866607666016	-444.17034912109375	-20.97606468200684	-68.02373504638672	-446.0252990722656	-0.0	-0.0	-0.0	-0.0	-0.0	-0.0	74819.0234375	6743.1865234375	-14435.4375
0.499	-0.0	-0.0	-0.0	-3.502988338470459	60.58370590209961	-445.52001953125	-21.10497283935547	-68.44931030273438	-446.8818359375	-0.0	-0.0	-0.0	-0.0	-0.0	-0.0	75203.2578125	6757.6884765625	-14476.0439453125
0.4995	-0.0	-0.0	-0.0	-3.2755489349365234	60.80374526977539	-445.0733337402344	-21.064674377441406	-68.3044662475586	-445.7409057617188	-0.0	-0.0	-0.0	-0.0	-0.0	-0.0	75524.515625	6516.24609375	-14468.0380859375
0.5	-0.0	-0.0	-0.0	-2.961094379425049	60.648956298828125	-446.4873046875	-20.46048927307129	-68.19274139404297	-447.9615478515625	-0.0	-0.0	-0.0	-0.0	-0.0	-0.0	75249.578125	6539.26123046875	-14343.3623046875
0.5005000000000001	-0.0	-0.0	-0.0	-2.984204769134521	61.11192321777344	-445.3599243164063	-20.314769744873047	-68.42643737792969	-448.1866149902344	-0.0	-0.0	-0.0	-0.0	-0.0	-0.0	75490.4453125	6325.82861328125	-14300.232421875
0.501	-0.0	-0.0	-0.0	-2.6674952507019043	61.45981979370117	-447.1607360839844	-20.638277053833008	-68.41810607910156	-447.4890441894531	-0.0	-0.0	-0.0	-0.0	-0.0	-0.0	75357.3125	6371.708984375	-14270.7958984375
0.5015000000000001	-0.0	-0.0	-0.0	-2.359609603881836	61.65599822998047	-446.8434143066406	-20.540945053100582	-68.9482192993164	-448.6598510742188	-0.0	-0.0	-0.0	-0.0	-0.0	-0.0	75496.1796875	6159.5166015625	-14376.15625
0.502	-0.0	-0.0	-0.0	-2.671304941177368	61.027286529541016	-446.8599243164063	-20.949020385742188	-69.32368469238281	-448.69476318359375	-0.0	-0.0	-0.0	-0.0	-0.0	-0.0	75497.1328125	6058.41015625	-14330.57421875
0.5025000000000001	-0.0	-0.0	-0.0	-1.895072340965271	61.08513259887695	-447.35693359375	-20.762001037597656	-69.1865463256836	-449.7428894042969	-0.0	-0.0	-0.0	-0.0	-0.0	-0.0	75787.6484375	5830.505859375	-14406.078125
0.503	-0.0	-0.0	-0.0	-1.319552302360535	60.91598510742188	-447.199462890625	-20.541126251220703	-69.71629333496094	-449.5867919921875	-0.0	-0.0	-0.0	-0.0	-0.0	-0.0	75978.6484375	5758.4248046875	-14281.2939453125
0.5035000000000001	-0.0	-0.0	-0.0	-1.2794736623764038	61.06370162963867	-448.1853637695313	-20.314769744873047	-69.5395278930664	-449.8636779785156	-0.0	-0.0	-0.0	-0.0	-0.0	-0.0	76187.8515625	5570.46630859375	-14211.5224609375
0.504	-0.0	-0.0	-0.0	-0.8427267074584961	60.78693389892578	-448.5007629394531	-19.773103713989254	-69.32316589355469	-450.4876403808594	-0.0	-0.0	-0.0	-0.0	-0.0	-0.0	76039.34375	5490.50244140625	-13990.173828125
0.5045000000000001	-0.0	-0.0	-0.0	-0.5750348567962646	61.15422058105469	-448.4193420410156	-19.24071884155273	-69.70477294921875	-450.9855346679688	-0.0	-0.0	-0.0	-0.0	-0.0	-0.0	76149.1171875	5132.7392578125	-13890.865234375
0.505	-0.0	-0.0	-0.0	-0.3274629116058349	61.31139755249024	-448.30377197265625	-18.914691925048828	-69.42085266113281	-451.2594909667969	-0.0	-0.0	-0.0	-0.0	-0.0	-0.0	75978.3984375	5144.55126953125	-13788.4326171875
0.5055000000000001	-0.0	-0.0	-0.0	0.574912965297699	61.29200744628906	-450.0296936035156	-18.481136322021484	-68.78314971923828	-448.8135681152344	-0.0	-0.0	-0.0	-0.0	-0.0	-0.0	75751.2265625	4980.2705078125	-13699.2080078125
0.506	-0.0	-0.0	-0.0	1.3877593278884888	61.37127685546875	-449.0089416503906	-17.63370704650879	-68.61614990234375	-448.54339599609375	-0.0	-0.0	-0.0	-0.0	-0.0	-0.0	75609.7734375	4781.56591796875	-13513.9228515625
0.5065000000000001	-0.0	-0.0	-0.0	1.8429609537124636	61.39056396484375	-448.3016357421875	-17.071823120117188	-68.43934631347656	-446.8773498535156	-0.0	-0.0	-0.0	-0.0	-0.0	-0.0	75584.4140625	4695.8681640625	-13312.322265625
0.507	-0.0	-0.0	-0.0	2.410313606262207	61.352516174316406	-449.0072937011719	-16.619295120239258	-67.82097625732422	-446.1009826660156	-0.0	-0.0	-0.0	-0.0	-0.0	-0.0	75380.1796875	4482.16015625	-13315.150390625
0.5075000000000001	-0.0	-0.0	-0.0	3.172151565551758	60.766239166259766	-447.9552001953125	-16.737295150756836	-67.72240447998047	-445.3969421386719	-0.0	-0.0	-0.0	-0.0	-0.0	-0.0	75315.6484375	4358.2626953125	-13213.064453125
0.508	-0.0	-0.0	-0.0	3.3506529331207275	60.63747787475586	-449.7954711914063	-16.30434799194336	-67.6544189453125	-445.97998046875	-0.0	-0.0	-0.0	-0.0	-0.0	-0.0	75385.8671875	4098.18408203125	-13186.5146484375
0.5085000000000001	-0.0	-0.0	-0.0	4.353305339813232	60.9864501953125	-448.7361755371094	-15.673185348510742	-67.53759765625	-445.86663818359375	-0.0	-0.0	-0.0	-0.0	-0.0	-0.0	75651.15625	3758.375244140625	-12975.8505859375
0.509	-0.0	-0.0	-0.0	4.688934326171875	60.75467300415039	-450.8554992675781	-14.843135833740234	-67.38945007324219	-446.1740112304688	-0.0	-0.0	-0.0	-0.0	-0.0	-0.0	75598.375	3525.2177734375	-12838.990234375
0.5095000000000001	-0.0	-0.0	-0.0	5.620262145996094	60.76519012451172	-450.4163818359375	-14.204455375671388	-67.24485778808594	-447.4856872558594	-0.0	-0.0	-0.0	-0.0	-0.0	-0.0	76048.28125	3479.551513671875	-12747.1943359375
0.51	-0.0	-0.0	-0.0	6.03821325302124	60.71979141235352	-451.2527160644531	-13.473189353942873	-67.42820739746094	-448.3106689453125	-0.0	-0.0	-0.0	-0.0	-0.0	-0.0	76278.1796875	3059.2392578125	-12617.2802734375
0.5105000000000001	-0.0	-0.0	-0.0	6.679625511169434	60.49170684814453	-450.54730224609375	-13.140206336975098	-67.33981323242188	-448.2239990234375	-0.0	-0.0	-0.0	-0.0	-0.0	-0.0	76302.25	2793.935791015625	-12505.701171875
0.511	-0.0	-0.0	-0.0	7.019892692565918	60.876068115234375	-451.4975280761719	-12.297525405883787	-66.97543334960938	-449.18359375	-0.0	-0.0	-0.0	-0.0	-0.0	-0.0	76567.515625	2608.114013671875	-12369.7080078125
0.5115000000000001	-0.0	-0.0	-0.0	7.733700752258301	60.55349349975586	-452.0703125	-12.203319549560549	-67.62693786621094	-448.85638427734375	-0.0	-0.0	-0.0	-0.0	-0.0	-0.0	76648.7265625	2620.593994140625	-12299.2958984375
0.512	-0.0	-0.0	-0.0	8.157017707824707	60.83723831176758	-451.7626037597656	-11.921244621276855	-67.21279907226562	-449.1612548828125	-0.0	-0.0	-0.0	-0.0	-0.0	-0.0	76494.0703125	2178.47998046875	-12247.134765625
0.5125	-0.0	-0.0	-0.0	8.971461296081543	60.70940399169922	-452.4235229492188	-11.52094841003418	-67.00910186767578	-449.0540771484375	-0.0	-0.0	-0.0	-0.0	-0.0	-0.0	76520.046875	1927.743896484375	-12165.466796875
0.513	-0.0	-0.0	-0.0	9.203947067260742	60.73650741577149	-451.7171630859375	-10.98473072052002	-66.88638305664062	-448.3562622070313	-0.0	-0.0	-0.0	-0.0	-0.0	-0.0	76420.9921875	2189.98876953125	-12092.9150390625
0.5135	-0.0	-0.0	-0.0	9.584203720092772	60.480899810791016	-452.9767456054688	-11.490473747253418	-66.57125854492188	-446.2752685546875	-0.0	-0.0	-0.0	-0.0	-0.0	-0.0	76344.6015625	1903.630615234375	-12026.1416015625
0.514	-0.0	-0.0	-0.0	9.890430450439451	60.63252258300781	-452.2705383300781	-11.11248016357422	-66.3561019897461	-446.3205871582031	-0.0	-0.0	-0.0	-0.0	-0.0	-0.0	75982.7421875	1967.33740234375	-11980.3681640625
0.5145	-0.0	-0.0	-0.0	10.348419189453123	60.49537658691406	-452.8634948730469	-10.961770057678224	-66.35586547851562	-444.9230346679688	-0.0	-0.0	-0.0	-0.0	-0.0	-0.0	75869.3984375	1775.58740234375	-11851.77734375
0.515	-0.0	-0.0	-0.0	10.92402458190918	60.393798828125	-452.1260070800781	-11.048369407653809	-65.7614974975586	-443.4225463867188	-0.0	-0.0	-0.0	-0.0	-0.0	-0.0	75778.3515625	1721.5640869140625	-11741.857421875
0.5155	-0.0	-0.0	-0.0	11.68657684326172	60.59482955932617	-451.8207092285156	-10.633153915405272	-65.71133422851562	-442.9227294921875	-0.0	-0.0	-0.0	-0.0	-0.0	-0.0	75821.7890625	1659.7613525390625	-11801.5
0.516	-0.0	-0.0	-0.0	11.037182807922363	60.44286346435547	-451.6145629882813	-10.429667472839355	-65.72357940673828	-443.4709777832031	-0.0	-0.0	-0.0	-0.0	-0.0	-0.0	75579.2265625	1406.3583984375	-11669.3037109375
0.5165	-0.0	-0.0	-0.0	11.68657684326172	60.444129943847656	-450.9609680175781	-10.252305030822754	-65.88798522949219	-442.6230163574219	-0.0	-0.0	-0.0	-0.0	-0.0	-0.0	75831.65625	1157.46923828125	-11686.4443359375
0.517	-0.0	-0.0	-0.0	12.119792938232422	60.557762145996094	-450.7582092285156	-9.733095169067385	-65.85050964355469	-442.6748962402344	-0.0	-0.0	-0.0	-0.0	-0.0	-0.0	75763.7421875	1294.434326171875	-11579.890625
